<svg width="141" height="141" viewBox="0 0 141 141" fill="none" xmlns="http://www.w3.org/2000/svg">
<rect width="141" height="141" rx="70.5" fill="#EBFBFB"/>
<g clip-path="url(#clip0_386_44324)">
<path d="M70.6033 109.492C95.237 109.492 115.207 105.761 115.207 101.158C115.207 96.5548 95.237 92.8235 70.6033 92.8235C45.9696 92.8235 26 96.5548 26 101.158C26 105.761 45.9696 109.492 70.6033 109.492Z" fill="#F5F5F7" fill-opacity="0.8"/>
<path fill-rule="evenodd" clip-rule="evenodd" d="M106.285 76.6737L90.5452 57.3019C89.79 56.3901 88.686 55.8381 87.5235 55.8381H53.6814C52.5196 55.8381 51.4156 56.3901 50.6604 57.3019L34.9209 76.6737V86.7941H106.286V76.6737H106.285Z" fill="#3580A9"/>
<path fill-rule="evenodd" clip-rule="evenodd" d="M48.2566 30.8354H92.9493C93.6473 30.8354 94.3166 31.1127 94.8102 31.6062C95.3037 32.0997 95.5809 32.7691 95.5809 33.467V94.8775C95.5809 95.5755 95.3037 96.2448 94.8102 96.7383C94.3166 97.2319 93.6473 97.5091 92.9493 97.5091H48.2566C47.5586 97.5091 46.8893 97.2319 46.3958 96.7383C45.9023 96.2448 45.625 95.5755 45.625 94.8775V33.467C45.625 32.7691 45.9023 32.0997 46.3958 31.6062C46.8893 31.1127 47.5586 30.8354 48.2566 30.8354V30.8354Z" fill="white"/>
<path fill-rule="evenodd" clip-rule="evenodd" d="M54.0772 37.3835H87.1278C87.4768 37.3835 87.8115 37.5222 88.0582 37.7689C88.305 38.0157 88.4436 38.3504 88.4436 38.6993V55.1184C88.4436 55.4674 88.305 55.8021 88.0582 56.0488C87.8115 56.2956 87.4768 56.4342 87.1278 56.4342H54.0772C53.7282 56.4342 53.3935 56.2956 53.1468 56.0488C52.9 55.8021 52.7614 55.4674 52.7614 55.1184V38.6993C52.7614 38.3504 52.9 38.0157 53.1468 37.7689C53.3935 37.5222 53.7282 37.3835 54.0772 37.3835ZM54.2495 63.577H86.9555C87.3501 63.577 87.7287 63.7338 88.0077 64.0128C88.2868 64.2919 88.4436 64.6704 88.4436 65.0651C88.4436 65.4598 88.2868 65.8383 88.0077 66.1174C87.7287 66.3965 87.3501 66.5533 86.9555 66.5533H54.2495C53.8548 66.5533 53.4763 66.3965 53.1972 66.1174C52.9182 65.8383 52.7614 65.4598 52.7614 65.0651C52.7614 64.6704 52.9182 64.2919 53.1972 64.0128C53.4763 63.7338 53.8548 63.577 54.2495 63.577ZM54.2495 71.3158H86.9555C87.3502 71.3158 87.7288 71.4726 88.008 71.7518C88.2871 72.0309 88.4439 72.4095 88.4439 72.8043C88.4439 73.199 88.2871 73.5776 88.008 73.8568C87.7288 74.1359 87.3502 74.2928 86.9555 74.2928H54.2495C53.8548 74.2928 53.4762 74.1359 53.197 73.8568C52.9179 73.5776 52.761 73.199 52.761 72.8043C52.761 72.4095 52.9179 72.0309 53.197 71.7518C53.4762 71.4726 53.8548 71.3158 54.2495 71.3158ZM106.14 99.9355C105.63 101.956 103.839 103.462 101.709 103.462H39.4962C37.366 103.462 35.5752 101.955 35.066 99.9355C34.9689 99.5505 34.9198 99.1549 34.9199 98.7579V76.6743H52.2344C54.1469 76.6743 55.6883 78.2849 55.6883 80.2401V80.2664C55.6883 82.221 57.2476 83.7993 59.1601 83.7993H82.0449C83.9574 83.7993 85.5166 82.2066 85.5166 80.2513V80.2434C85.5166 78.2881 87.0581 76.6737 88.9706 76.6737H106.285V98.7585C106.285 99.1645 106.234 99.5585 106.14 99.9355Z" fill="#46A8DE"/>
</g>
<defs>
<clipPath id="clip0_386_44324">
<rect width="121" height="99" fill="white" transform="translate(10 10)"/>
</clipPath>
</defs>
</svg>
