<svg width="17" height="16" viewBox="0 0 17 16" fill="none" xmlns="http://www.w3.org/2000/svg">
<path d="M5.19997 9.41388L3.78664 10.8286L5.67197 12.7139L13.214 5.17122L11.3286 3.28655L9.91331 4.69988L10.8566 5.64255L9.91331 6.58655L8.97064 5.64322L8.02797 6.58655L8.97064 7.52922L8.02797 8.47188L7.08531 7.52922L6.14197 8.47188L7.08531 9.41455L6.14197 10.3579L5.19997 9.41322V9.41388ZM11.8 1.87188L14.628 4.69988C14.753 4.8249 14.8232 4.99444 14.8232 5.17122C14.8232 5.34799 14.753 5.51753 14.628 5.64255L6.14264 14.1279C6.01762 14.2529 5.84808 14.3231 5.67131 14.3231C5.49453 14.3231 5.32499 14.2529 5.19997 14.1279L2.37197 11.2999C2.24699 11.1749 2.17678 11.0053 2.17678 10.8286C2.17678 10.6518 2.24699 10.4822 2.37197 10.3572L10.8573 1.87188C10.9823 1.7469 11.1519 1.67669 11.3286 1.67669C11.5054 1.67669 11.675 1.7469 11.8 1.87188ZM9.91331 12.2419L10.8566 11.2992L12.3513 12.7945H13.294V11.8519L11.7993 10.3566L12.742 9.41388L14.5 11.1712V13.9999H11.672L9.91397 12.2419H9.91331ZM4.25731 6.58522L2.37131 4.69988C2.30932 4.63797 2.26015 4.56444 2.2266 4.48351C2.19305 4.40258 2.17578 4.31583 2.17578 4.22822C2.17578 4.14061 2.19305 4.05385 2.2266 3.97292C2.26015 3.89199 2.30932 3.81847 2.37131 3.75655L4.25731 1.87122C4.38232 1.74624 4.55186 1.67603 4.72864 1.67603C4.90541 1.67603 5.07495 1.74624 5.19997 1.87122L7.08664 3.75655L6.14264 4.69988L4.72864 3.28522L3.78597 4.22855L5.19997 5.64188L4.25731 6.58522Z" fill="#40A9FF"/>
</svg>
