<svg width="17" height="16" viewBox="0 0 17 16" fill="none" xmlns="http://www.w3.org/2000/svg">
<path d="M8.50002 2.375C12.0947 2.375 15.0854 4.8 15.7127 8C15.086 11.2 12.0947 13.625 8.50002 13.625C4.90535 13.625 1.91469 11.2 1.28735 8C1.91402 4.8 4.90535 2.375 8.50002 2.375ZM8.50002 12.375C9.85967 12.3747 11.1789 11.9418 12.2419 11.147C13.3049 10.3522 14.0486 9.24267 14.3514 8C14.0475 6.75832 13.3033 5.65 12.2404 4.85627C11.1776 4.06253 9.85889 3.63033 8.50002 3.63033C7.14115 3.63033 5.82248 4.06253 4.7596 4.85627C3.69673 5.65 2.95253 6.75832 2.64869 8C2.95142 9.24267 3.69514 10.3522 4.75812 11.147C5.8211 11.9418 7.14037 12.3747 8.50002 12.375V12.375ZM8.50002 10.8125C7.70437 10.8125 6.94131 10.5162 6.3787 9.98874C5.81609 9.46129 5.50002 8.74592 5.50002 8C5.50002 7.25408 5.81609 6.53871 6.3787 6.01126C6.94131 5.48382 7.70437 5.1875 8.50002 5.1875C9.29567 5.1875 10.0587 5.48382 10.6213 6.01126C11.1839 6.53871 11.5 7.25408 11.5 8C11.5 8.74592 11.1839 9.46129 10.6213 9.98874C10.0587 10.5162 9.29567 10.8125 8.50002 10.8125ZM8.50002 9.5625C8.94205 9.5625 9.36597 9.39788 9.67853 9.10485C9.99109 8.81183 10.1667 8.4144 10.1667 8C10.1667 7.5856 9.99109 7.18817 9.67853 6.89515C9.36597 6.60212 8.94205 6.4375 8.50002 6.4375C8.05799 6.4375 7.63407 6.60212 7.32151 6.89515C7.00895 7.18817 6.83335 7.5856 6.83335 8C6.83335 8.4144 7.00895 8.81183 7.32151 9.10485C7.63407 9.39788 8.05799 9.5625 8.50002 9.5625Z" fill="#40A9FF"/>
</svg>
