<svg width="20" height="24" viewBox="0 0 20 24" fill="none" xmlns="http://www.w3.org/2000/svg">
<path d="M3.26693 0.333344C3.26693 0.931844 3.83859 1.50001 4.43359 1.50001H16.1003C16.6988 1.50001 17.2669 0.928344 17.2669 0.333344H19.6003C19.6003 2.26651 18.0334 3.83334 16.1003 3.83334H11.4336L11.4348 6.23901C16.0384 6.81418 19.6003 10.7412 19.6003 15.5V22.5C19.6003 23.144 19.0776 23.6667 18.4336 23.6667H2.10026C1.45626 23.6667 0.933594 23.144 0.933594 22.5V15.5C0.933594 10.74 4.49659 6.81301 9.10026 6.23901V3.83334H4.43359C2.49693 3.83334 0.933594 2.27001 0.933594 0.333344H3.26693ZM10.2669 10.8333C7.68859 10.8333 5.60026 12.9217 5.60026 15.5C5.60026 18.0783 7.68859 20.1667 10.2669 20.1667C12.8453 20.1667 14.9336 18.0783 14.9336 15.5C14.9336 14.6343 14.6979 13.8247 14.2873 13.1293L11.0918 16.326L10.9821 16.4217C10.5248 16.7775 9.86209 16.746 9.44209 16.3248C8.98709 15.8698 8.98709 15.1302 9.44209 14.6752L12.6376 11.4785C11.9423 11.0702 11.1326 10.8333 10.2669 10.8333Z" fill="#092C4C"/>
</svg>
