<svg width="25" height="25" viewBox="0 0 25 25" fill="none" xmlns="http://www.w3.org/2000/svg">
<path d="M6.01465 2.5C6.01465 3.013 6.50465 3.5 7.01465 3.5H17.0146C17.5276 3.5 18.0146 3.01 18.0146 2.5H20.0146C20.0146 4.157 18.6716 5.5 17.0146 5.5H13.0146L13.0156 7.562C16.9616 8.055 20.0146 11.421 20.0146 15.5V21.5C20.0146 22.052 19.5666 22.5 19.0146 22.5H5.01465C4.46265 22.5 4.01465 22.052 4.01465 21.5V15.5C4.01465 11.42 7.06865 8.054 11.0146 7.562V5.5H7.01465C5.35465 5.5 4.01465 4.16 4.01465 2.5H6.01465ZM12.0146 11.5C9.80465 11.5 8.01465 13.29 8.01465 15.5C8.01465 17.71 9.80465 19.5 12.0146 19.5C14.2246 19.5 16.0146 17.71 16.0146 15.5C16.0146 14.758 15.8126 14.064 15.4606 13.468L12.7216 16.208L12.6276 16.29C12.2356 16.595 11.6676 16.568 11.3076 16.207C10.9176 15.817 10.9176 15.183 11.3076 14.793L14.0466 12.053C13.4506 11.703 12.7566 11.5 12.0146 11.5Z" fill="#092C4C"/>
</svg>
